<svg version="1.0" xmlns="http://www.w3.org/2000/svg"
 width="512.000000pt" height="512.000000pt" viewBox="0 0 512.000000 512.000000"
 preserveAspectRatio="xMidYMid meet">

<g transform="translate(0.000000,512.000000) scale(0.100000,-0.100000)"
fill="#6c757d" stroke="none">
<path d="M2315 5109 c-800 -83 -1501 -518 -1927 -1196 -604 -961 -490 -2237
274 -3068 425 -462 951 -737 1583 -827 119 -17 512 -16 635 1 752 104 1395
504 1812 1126 211 316 352 694 410 1100 17 118 17 512 0 630 -70 491 -250 916
-544 1284 -142 179 -376 395 -560 519 -324 219 -690 360 -1083 418 -123 18
-478 26 -600 13z m559 -244 c663 -93 1250 -461 1622 -1016 146 -218 278 -526
333 -774 42 -192 54 -304 54 -515 0 -377 -75 -699 -239 -1029 -351 -706 -1010
-1175 -1804 -1282 -137 -19 -459 -16 -595 5 -266 41 -492 112 -714 222 -706
351 -1176 1012 -1282 1804 -16 122 -16 438 0 560 106 792 577 1455 1282 1804
272 135 553 211 889 240 81 7 350 -4 454 -19z"/>
<path d="M2438 2709 l-3 -1131 -385 302 c-212 167 -393 309 -402 318 -17 14
-18 9 -18 -104 l1 -119 464 -348 465 -347 465 347 464 348 1 118 0 118 -112
-89 c-62 -49 -243 -192 -403 -317 l-290 -228 -3 1132 -2 1131 -120 0 -120 0
-2 -1131z"/>
</g>
</svg>
